<svg xmlns="http://www.w3.org/2000/svg" id="Layer_1" data-name="Layer 1" viewBox="0 0 586.83 716.18"><defs><style>.cls-1{stroke-width:0}</style></defs><g id="Icon_Monochrome_Dark_" data-name="Icon (Monochrome Dark)"><path d="M44.73,470.23c.05-45.76,10.57-87.4,27.88-127.42,16.34-37.78,37.57-72.52,60.39-106.26,25.4-37.57,53.12-73.25,81.31-108.55,26.35-32.99,53.3-65.45,78.81-99.16,6.47-8.55,12.52-17.44,18.76-26.17,2.46-3.44,3.22-3.54,5.31-.38,15.02,22.73,32.19,43.68,49.04,64.9,14.89,18.76,30.6,36.8,44.93,56.04,8.5,11.41,15.33,23.75,17.95,38.21,3.98,22.01.27,42.51-11.22,61.42-6.39,10.52-14.25,19.81-22.71,28.55-35.97,37.1-72.04,74.1-107.94,111.28-63.51,65.78-126.94,131.65-190.36,197.53-6.24,6.48-12.2,13.25-18.34,19.84-4.37,4.69-6.05,4.57-8.97-1.34-5.17-10.45-9.48-21.3-12.9-32.54-7.69-25.22-12.57-50.89-11.92-75.93Z" class="cls-1"/><path d="M464.84,187.38c.4.76.73,1.57,1.22,2.27,22.67,32.73,45.52,65.35,65,100.34,16.17,29.05,31.23,58.67,41.31,90.76,7.24,23.06,11.8,46.69,13.66,70.86,2.62,34.06-1.09,67.42-10.64,100.09-8.78,30-22.82,57.06-41.27,81.77-18.57,24.87-41.1,45.17-65.61,63.26-.67.49-1.32,1.03-2.05,1.39-1.38.69-2.41.36-2.57-1.39-.11-1.27-.04-2.56-.04-3.85,0-143.07,0-286.14-.01-429.21,0-20.96,0-41.92-.07-62.87-.01-4.18-.35-8.37-.54-12.55.54-.29,1.08-.57,1.62-.86Z" class="cls-1"/><path d="M426.86,716.18H11.68c-10.41,0-15.6-13.17-8.21-20.83l415.21-430.21c7.36-7.62,19.86-2.18,19.86,8.65v430.17c0,6.74-5.23,12.21-11.68,12.21Z" class="cls-1"/></g></svg>