<svg xmlns="http://www.w3.org/2000/svg" width="1200" height="800" aria-label="Belajar Aksara Bali dari Nol" role="img" viewBox="0 0 1200 800"><defs><linearGradient id="bgBelajar" x1="0" x2="1" y1="0" y2="1"><stop offset="0" stop-color="#16130c"/><stop offset="1" stop-color="#0a0806"/></linearGradient><linearGradient id="sandBelajar" x1="0" x2="0" y1="0" y2="1"><stop offset="0" stop-color="#e8dcc0"/><stop offset="1" stop-color="#a08a55"/></linearGradient></defs><rect width="1200" height="800" fill="url(#bgBelajar)"/><g><g transform="translate(160 220)"><rect width="86" height="86" x="0" y="0" fill="url(#sandBelajar)" opacity=".22" rx="16"/><circle cx="43" cy="-38" r="13" fill="#e8dcc0"/></g><g transform="translate(160 220) translate(132 0)"><rect width="86" height="86" x="0" y="0" fill="url(#sandBelajar)" opacity=".22" rx="16"/><path fill="none" stroke="#e8dcc0" stroke-linecap="round" stroke-width="10" d="M28 118 C 28 146, 54 156, 74 144"/></g><g transform="translate(160 220) translate(300 0)"><rect width="86" height="86" x="0" y="0" fill="url(#sandBelajar)" opacity=".22" rx="16"/><path fill="none" stroke="#e8dcc0" stroke-linecap="round" stroke-width="10" d="M-24 16 C -50 16, -56 70, -24 70"/></g><g transform="translate(160 220) translate(486 0)"><rect width="86" height="86" x="0" y="0" fill="url(#sandBelajar)" opacity=".22" rx="16"/><path fill="none" stroke="#e8dcc0" stroke-linecap="round" stroke-width="10" d="M-24 16 C -50 16, -56 70, -24 70"/><path fill="none" stroke="#e8dcc0" stroke-linecap="round" stroke-width="10" d="M110 6 V 80"/></g><path stroke="#e8dcc0" stroke-dasharray="8 14" stroke-linecap="round" stroke-width="4" d="M0 148 H 596" opacity=".22" transform="translate(160 220)"/></g><text x="120" y="500" fill="#f7f2e6" font-family="-apple-system, BlinkMacSystemFont, 'Segoe UI', Inter, sans-serif" font-size="76" font-weight="800" letter-spacing="-2">Belajar Aksara Bali</text><text x="120" y="584" fill="#f7f2e6" font-family="-apple-system, BlinkMacSystemFont, 'Segoe UI', Inter, sans-serif" font-size="76" font-weight="800" letter-spacing="-2">dari Nol</text><text x="122" y="664" fill="#e8dcc0" font-family="-apple-system, BlinkMacSystemFont, 'Segoe UI', Inter, sans-serif" font-size="42" font-weight="700" letter-spacing="-1">Jangan mulai dari tabel aksara.</text></svg>