<svg xmlns="http://www.w3.org/2000/svg" width="1200" height="800" aria-label="I got my first remote software engineering job before I graduated" role="img" viewBox="0 0 1200 800"><defs><linearGradient id="bg2" x1="0" x2="1" y1="0" y2="1"><stop offset="0" stop-color="#141619"/><stop offset="1" stop-color="#0b0c0e"/></linearGradient><linearGradient id="accent2" x1="0" x2="1" y1="0" y2="1"><stop offset="0" stop-color="#5b8cff"/><stop offset="1" stop-color="#4a7bf0"/></linearGradient></defs><rect width="1200" height="800" fill="url(#bg2)"/><g><rect width="700" height="44" x="120" y="120" fill="none" stroke="#262a30" stroke-width="2" rx="10"/><rect width="240" height="12" x="140" y="136" fill="#262a30" rx="6"/><rect width="700" height="44" x="120" y="180" fill="none" stroke="#262a30" stroke-width="2" rx="10"/><rect width="320" height="12" x="140" y="196" fill="#262a30" rx="6"/><rect width="700" height="44" x="120" y="240" fill="url(#accent2)" rx="10"/><rect width="180" height="12" x="140" y="256" fill="#fff" opacity=".85" rx="6"/><circle cx="790" cy="262" r="7" fill="#fff"/><rect width="700" height="44" x="120" y="300" fill="none" stroke="#262a30" stroke-width="2" rx="10"/><rect width="280" height="12" x="140" y="316" fill="#262a30" rx="6"/></g><text x="120" y="500" fill="#eceef1" font-family="-apple-system, BlinkMacSystemFont, 'Segoe UI', Inter, sans-serif" font-size="66" font-weight="800" letter-spacing="-2">My first remote job,</text><text x="120" y="578" fill="#eceef1" font-family="-apple-system, BlinkMacSystemFont, 'Segoe UI', Inter, sans-serif" font-size="66" font-weight="800" letter-spacing="-2">before I graduated.</text><text x="120" y="650" fill="#8b929c" font-family="-apple-system, BlinkMacSystemFont, 'Segoe UI', Inter, sans-serif" font-size="26" font-weight="500">It started with an email.</text></svg>