<svg xmlns="http://www.w3.org/2000/svg" width="1200" height="800" aria-label="Menulis Nama Anda dalam Aksara Bali" role="img" viewBox="0 0 1200 800"><defs><linearGradient id="bgNama" x1="0" x2="1" y1="0" y2="1"><stop offset="0" stop-color="#0d1020"/><stop offset="1" stop-color="#060711"/></linearGradient><linearGradient id="indigoNama" x1="0" x2="0" y1="0" y2="1"><stop offset="0" stop-color="#9db4ff"/><stop offset="1" stop-color="#4257c4"/></linearGradient></defs><rect width="1200" height="800" fill="url(#bgNama)"/><g transform="translate(170 210)"><g><path fill="none" stroke="url(#indigoNama)" stroke-linecap="round" stroke-width="12" d="M0 -34 C 44 -34, 66 0, 44 32 C 28 56, -6 56, -22 32"/><path fill="none" stroke="#9db4ff" stroke-linecap="round" stroke-width="10" d="M-62 -30 C -88 -30, -94 34, -62 34"/></g><path stroke="#9db4ff" stroke-dasharray="10 12" stroke-linecap="round" stroke-width="6" d="M136 0 H196" opacity=".45"/><g transform="translate(300 0)"><path fill="none" stroke="url(#indigoNama)" stroke-linecap="round" stroke-width="12" d="M0 -34 C 44 -34, 66 0, 44 32 C 28 56, -6 56, -22 32"/><circle cx="18" cy="-72" r="13" fill="#9db4ff"/></g><rect width="9" height="92" x="440" y="-46" fill="#9db4ff" opacity=".8" rx="4"/><path stroke="#9db4ff" stroke-linecap="round" stroke-width="7" d="M478 46 H660" opacity=".25"/></g><text x="120" y="500" fill="#eef1ff" font-family="-apple-system, BlinkMacSystemFont, 'Segoe UI', Inter, sans-serif" font-size="76" font-weight="800" letter-spacing="-2">Menulis Nama Anda</text><text x="120" y="584" fill="#eef1ff" font-family="-apple-system, BlinkMacSystemFont, 'Segoe UI', Inter, sans-serif" font-size="76" font-weight="800" letter-spacing="-2">dalam Aksara Bali</text><text x="122" y="664" fill="#9db4ff" font-family="-apple-system, BlinkMacSystemFont, 'Segoe UI', Inter, sans-serif" font-size="42" font-weight="700" letter-spacing="-1">Periksa huruf e sebelum menatokannya.</text></svg>