<svg xmlns="http://www.w3.org/2000/svg" width="1200" height="800" aria-label="A script my grandparents could read and I could not" role="img" viewBox="0 0 1200 800"><defs><linearGradient id="bg3" x1="0" x2="1" y1="0" y2="1"><stop offset="0" stop-color="#141619"/><stop offset="1" stop-color="#0b0c0e"/></linearGradient><linearGradient id="accent3" x1="0" x2="0" y1="0" y2="1"><stop offset="0" stop-color="#5b8cff"/><stop offset="1" stop-color="#4a7bf0"/></linearGradient></defs><rect width="1200" height="800" fill="url(#bg3)"/><g fill="none" stroke="#262a30" stroke-width="2"><path d="M760 380 L760 150 L790 150 L790 130 L820 130 L820 110 L850 110 L850 90 L900 90 L900 380 Z"/><path d="M1080 380 L1080 150 L1050 150 L1050 130 L1020 130 L1020 110 L990 110 L990 90 L940 90 L940 380 Z"/><line x1="740" x2="1100" y1="380" y2="380"/></g><rect width="40" height="290" x="900" y="90" fill="url(#accent3)" opacity=".9"/><g fill="#262a30"><rect width="110" height="9" x="775" y="200" rx="4"/><rect width="80" height="9" x="775" y="228" rx="4"/><rect width="100" height="9" x="775" y="256" rx="4"/><rect width="110" height="9" x="955" y="200" rx="4"/><rect width="70" height="9" x="955" y="228" rx="4"/><rect width="95" height="9" x="955" y="256" rx="4"/></g><text x="120" y="330" fill="#eceef1" font-family="-apple-system, BlinkMacSystemFont, 'Segoe UI', Inter, sans-serif" font-size="60" font-weight="800" letter-spacing="-1.8">A script my</text><text x="120" y="400" fill="#eceef1" font-family="-apple-system, BlinkMacSystemFont, 'Segoe UI', Inter, sans-serif" font-size="60" font-weight="800" letter-spacing="-1.8">grandparents</text><text x="120" y="470" fill="#eceef1" font-family="-apple-system, BlinkMacSystemFont, 'Segoe UI', Inter, sans-serif" font-size="60" font-weight="800" letter-spacing="-1.8">could read,</text><text x="120" y="540" fill="#5b8cff" font-family="-apple-system, BlinkMacSystemFont, 'Segoe UI', Inter, sans-serif" font-size="60" font-weight="800" letter-spacing="-1.8">and I could not.</text><text x="120" y="610" fill="#8b929c" font-family="-apple-system, BlinkMacSystemFont, 'Segoe UI', Inter, sans-serif" font-size="26" font-weight="500">Aksara Bali</text></svg>